<svg xmlns="http://www.w3.org/2000/svg" version="1.1" xmlns:xlink="http://www.w3.org/1999/xlink" width="1500" height="1500" viewBox="0 0 1500 1500"><rect width="1500" height="1500" x="0" y="0" id="background" stroke="transparent" fill="#ffffff"></rect><svg xml:space="preserve" width="1000" height="1000" data-version="2" data-id="lg_9NEWaxvuFfuexxBmRh" viewBox="0 0 371 371" x="250" y="250"><rect width="100%" height="100%" fill="transparent"></rect><path fill="#1d1d1d" d="M26.86 50.53c11.38 11.38 22.077 22.123 22.077 43.928s-10.743 32.548-22.078 43.928C15.343 149.903 3.416 161.829 3.416 185.5c0 23.716 11.927 35.643 23.443 47.16 11.38 11.38 22.078 22.032 22.078 43.882 0 21.85-10.743 32.548-22.078 43.928-11.516 11.517-23.443 23.398-23.443 47.114h364.168c0-23.67-11.927-35.597-23.443-47.114-11.38-11.38-22.078-22.123-22.078-43.928s10.743-32.548 22.078-43.928c11.516-11.517 23.443-23.443 23.443-47.114 0-23.716-11.927-35.643-23.443-47.16-11.38-11.38-22.078-22.032-22.078-43.882 0-21.85 10.743-32.548 22.078-43.928 11.516-11.517 23.443-23.398 23.443-47.114H3.416c0 23.67 11.927 35.597 23.443 47.114"></path><path fill="#ffffff" d="m244.435 262.54-100.62-107.81v103.02h-17.25V109.21l100.62 107.81V114h17.25Z" paint-order="stroke"></path><rect width="117.87" height="153.33" x="-58.94" y="-76.67" fill="none" rx="0" ry="0" transform="translate(186 186.38)"></rect></svg></svg>